<svg xmlns="http://www.w3.org/2000/svg" viewBox="0 0 640 360" role="img" aria-label="AI Governance Hub dashboard preview">
  <defs>
    <linearGradient id="bg" x1="0" y1="0" x2="1" y2="1">
      <stop offset="0%" stop-color="#f8fafc"/>
      <stop offset="100%" stop-color="#eff6ff"/>
    </linearGradient>
  </defs>
  <rect width="640" height="360" fill="url(#bg)"/>
  <rect x="24" y="20" width="140" height="72" rx="10" fill="#fff" stroke="#dbeafe"/>
  <text x="40" y="48" fill="#64748b" font-family="Inter,Arial,sans-serif" font-size="11">Governance Score</text>
  <text x="40" y="78" fill="#0f172a" font-family="Inter,Arial,sans-serif" font-size="28" font-weight="700">84%</text>
  <rect x="180" y="20" width="140" height="72" rx="10" fill="#fff" stroke="#dbeafe"/>
  <text x="196" y="48" fill="#64748b" font-family="Inter,Arial,sans-serif" font-size="11">Work Items</text>
  <text x="196" y="78" fill="#0f172a" font-family="Inter,Arial,sans-serif" font-size="28" font-weight="700">248</text>
  <rect x="336" y="20" width="140" height="72" rx="10" fill="#fff" stroke="#dbeafe"/>
  <text x="352" y="48" fill="#64748b" font-family="Inter,Arial,sans-serif" font-size="11">AI-related</text>
  <text x="352" y="78" fill="#2563eb" font-family="Inter,Arial,sans-serif" font-size="28" font-weight="700">12</text>
  <rect x="492" y="20" width="124" height="72" rx="10" fill="#fff" stroke="#dbeafe"/>
  <text x="508" y="48" fill="#64748b" font-family="Inter,Arial,sans-serif" font-size="11">High Risk</text>
  <text x="508" y="78" fill="#dc2626" font-family="Inter,Arial,sans-serif" font-size="28" font-weight="700">2</text>
  <rect x="24" y="112" width="592" height="160" rx="12" fill="#fff" stroke="#dbeafe"/>
  <text x="40" y="138" fill="#0f172a" font-family="Inter,Arial,sans-serif" font-size="13" font-weight="600">Risk distribution</text>
  <rect x="40" y="156" width="420" height="14" rx="7" fill="#e2e8f0"/>
  <rect x="40" y="156" width="320" height="14" rx="7" fill="#22c55e"/>
  <text x="470" y="168" fill="#64748b" font-family="Inter,Arial,sans-serif" font-size="11">Low 76%</text>
  <rect x="40" y="186" width="420" height="14" rx="7" fill="#e2e8f0"/>
  <rect x="40" y="186" width="110" height="14" rx="7" fill="#f59e0b"/>
  <text x="470" y="198" fill="#64748b" font-family="Inter,Arial,sans-serif" font-size="11">Medium 18%</text>
  <rect x="40" y="216" width="420" height="14" rx="7" fill="#e2e8f0"/>
  <rect x="40" y="216" width="42" height="14" rx="7" fill="#ef4444"/>
  <text x="470" y="228" fill="#64748b" font-family="Inter,Arial,sans-serif" font-size="11">High 6%</text>
  <text x="40" y="258" fill="#64748b" font-family="Inter,Arial,sans-serif" font-size="11">EU AI Act · ISO 42001 · NIST AI RMF mapping</text>
  <rect x="24" y="288" width="280" height="52" rx="10" fill="#0f172a"/>
  <text x="40" y="312" fill="#93c5fd" font-family="Inter,Arial,sans-serif" font-size="11">Executive summary</text>
  <text x="40" y="330" fill="#f1f5f9" font-family="Inter,Arial,sans-serif" font-size="11">Portfolio-level governance recommended · 12 AI-related work items</text>
  <rect x="320" y="288" width="296" height="52" rx="10" fill="#2563eb"/>
  <text x="336" y="320" fill="#fff" font-family="Inter,Arial,sans-serif" font-size="12" font-weight="600">Board-ready PDF · DOCX · PPTX</text>
</svg>
